<svg id="Capa_1" enable-background="new 0 0 512.028 512.028" height="512" viewBox="0 0 512.028 512.028" width="512" xmlns="http://www.w3.org/2000/svg"><g><g><g><g fill="#fff2a0"><path d="m502.029 185.592-214.759 65.924v-65.924l214.759-65.924z"/><ellipse cx="459.66" cy="377.037" rx="49.401" ry="33.903" transform="matrix(.707 -.707 .707 .707 -131.974 435.461)"/><ellipse cx="244.902" cy="442.961" rx="49.401" ry="33.903" transform="matrix(.707 -.707 .707 .707 -241.491 302.912)"/></g><path d="m200.876 68.719-136.848 42.008v-42.008l136.848-42.008z" fill="#ff9c9b"/><ellipse cx="173.878" cy="190.71" fill="#ff9c9b" rx="31.479" ry="21.603" transform="matrix(.707 -.707 .707 .707 -83.925 178.809)"/><ellipse cx="37.031" cy="232.718" fill="#ff9c9b" rx="31.479" ry="21.603" transform="matrix(.707 -.707 .707 .707 -153.711 94.346)"/></g></g><g><path d="m507.972 111.626c-2.551-1.885-5.845-2.448-8.878-1.518l-67.213 20.633c-5.28 1.62-8.246 7.215-6.625 12.494 1.621 5.28 7.214 8.244 12.494 6.625l54.279-16.662v45.004l-194.759 59.784v-45.003l60.148-18.464c5.28-1.62 8.246-7.215 6.625-12.494-1.62-5.28-7.212-8.243-12.494-6.625l-67.214 20.633c-4.199 1.289-7.065 5.167-7.065 9.56v65.924 142.736c-7.606-3.552-16.771-4.575-26.448-2.775-13.092 2.435-26.22 9.694-36.964 20.439-10.745 10.745-18.004 23.872-20.44 36.964-2.652 14.255.804 27.406 9.48 36.083 6.763 6.763 16.242 10.353 26.845 10.353 3.001 0 6.094-.288 9.238-.873 13.092-2.436 26.219-9.694 36.964-20.44 10.745-10.745 18.004-23.872 20.439-36.964.592-3.183.863-6.305.856-9.34h.029v-168.793l194.759-59.784v129.205c-7.606-3.552-16.77-4.574-26.448-2.774-13.092 2.436-26.219 9.694-36.964 20.44-10.745 10.745-18.004 23.872-20.439 36.964-2.652 14.255.803 27.406 9.48 36.083 6.763 6.763 16.242 10.353 26.845 10.353 3.001 0 6.093-.288 9.238-.873 13.092-2.436 26.219-9.694 36.964-20.439s18.004-23.872 20.44-36.964c.592-3.183.863-6.305.856-9.34h.029v-176.185-65.925c-.001-3.172-1.506-6.156-4.057-8.042zm-231.25 321.757c-1.679 9.026-7.117 18.678-14.919 26.48-7.802 7.803-17.453 13.24-26.48 14.92-4.51.839-12.883 1.439-18.283-3.961-5.4-5.399-4.799-13.772-3.96-18.282 1.68-9.026 7.117-18.678 14.919-26.479 7.801-7.803 17.453-13.24 26.479-14.92 1.545-.287 3.542-.546 5.719-.546 4.178 0 9.014.956 12.564 4.507 5.402 5.398 4.801 13.771 3.961 18.281zm214.759-65.924c-1.68 9.026-7.117 18.678-14.919 26.48-7.802 7.803-17.453 13.24-26.48 14.92-4.51.839-12.883 1.439-18.283-3.961-5.4-5.399-4.799-13.772-3.96-18.282 1.679-9.026 7.117-18.678 14.919-26.479 7.802-7.803 17.453-13.24 26.48-14.92 1.545-.287 3.542-.546 5.719-.546 4.177 0 9.013.956 12.563 4.507h.001c5.401 5.398 4.799 13.771 3.96 18.281z"/><circle cx="394.649" cy="152.63" r="10"/><path d="m210.875 179.787v-111.068-42.008c0-3.172-1.505-6.156-4.056-8.042-2.551-1.885-5.846-2.449-8.878-1.518l-136.847 42.008c-4.199 1.289-7.065 5.167-7.065 9.56v42.008 85.866c-4.294-1.043-9.008-1.156-13.889-.247-9.056 1.685-18.096 6.666-25.455 14.025-16.448 16.446-19.516 39.146-6.985 51.678 5.187 5.186 12.113 7.7 19.619 7.7 10.629-.001 22.419-5.044 32.059-14.684 10.008-10.008 15.051-22.329 14.65-33.267v-103.68l116.847-35.868v72.336c-4.294-1.042-9.008-1.157-13.889-.247-9.056 1.685-18.096 6.666-25.456 14.025-16.447 16.446-19.515 39.145-6.983 51.678 5.186 5.186 12.113 7.7 19.619 7.7 10.629 0 22.418-5.044 32.059-14.684 10.009-10.01 15.052-22.332 14.65-33.271zm-189.032 68.119c-3.873-3.873-1.71-14.7 6.983-23.394 4.465-4.466 9.922-7.565 14.971-8.505.685-.127 1.764-.281 2.964-.281 1.867 0 4.027.373 5.457 1.804 1.099 1.099 1.694 2.771 1.81 4.782v.682h.035c.008 5.035-2.879 11.98-8.827 17.929-8.692 8.692-19.52 10.857-23.393 6.983zm52.185-171.797 116.847-35.868v21.087l-116.847 35.868zm84.662 129.79c-3.873-3.874-1.71-14.701 6.983-23.394 4.466-4.466 9.923-7.566 14.972-8.506.685-.127 1.763-.281 2.964-.281 1.867 0 4.027.373 5.457 1.804 1.099 1.099 1.694 2.77 1.81 4.781v.683h.035c.008 5.035-2.879 11.98-8.827 17.929-8.693 8.694-19.52 10.855-23.394 6.984z"/></g></g></svg>